Coordinates
version=1
nRows=14
nColumns=36
inDegrees=yes

Units are S.I. units (second, meters, Newtons, ...)
If the header above contains a line with 'inDegrees', this indicates whether rotational values are in degrees (yes) or radians (no).

endheader
time	pelvis_tilt	pelvis_list	pelvis_rotation	pelvis_tx	pelvis_ty	pelvis_tz	hip_flexion_r	hip_adduction_r	hip_rotation_r	knee_angle_r	knee_angle_r_beta	ankle_angle_r	subtalar_angle_r	mtp_angle_r	hip_flexion_l	hip_adduction_l	hip_rotation_l	knee_angle_l	knee_angle_l_beta	ankle_angle_l	subtalar_angle_l	mtp_angle_l	lumbar_extension	lumbar_bending	lumbar_rotation	arm_flex_r	arm_add_r	arm_rot_r	elbow_flex_r	pro_sup_r	arm_flex_l	arm_add_l	arm_rot_l	elbow_flex_l	pro_sup_l
      3.95000000	     -9.74823416	     -1.51656735	      0.26367708	      0.09141153	      1.12274260	      0.40367470	     24.18519487	      2.30973623	      4.18928455	     27.13175548	      0.47353847	     10.02460062	    -21.25241463	     -7.49999987	     23.02706317	      1.55171054	      0.66063918	     29.63347707	      0.51720174	     19.67658433	     -7.30952111	     -7.49999987	     -3.68558058	      1.35267394	     -1.70238400	     -3.84577562	     -7.64810628	     -2.53137002	     31.38571990	     86.82553606	     -3.90753255	     -7.80820199	      7.63149000	     32.99514101	     83.46954645
      3.96666670	    -10.84364243	     -1.18918830	      0.50636608	      0.09139497	      1.11350092	      0.39779148	     26.88078976	      1.61044123	      3.77027352	     31.12260508	      0.54319193	     11.43882585	    -20.73535987	     -7.49999987	     25.24442674	      2.13751802	      0.82661940	     32.11674692	      0.56054298	     20.48476109	     -7.92646936	     -7.49999987	     -3.37130895	      1.08447522	     -2.11131725	     -4.57538562	     -8.00561767	     -2.39712359	     32.41249636	     85.75789708	     -5.05006241	     -7.97880686	      7.44282906	     34.28517541	     83.24806288
      3.98333330	    -10.78441299	     -0.77666914	      1.07373722	      0.09133168	      1.11276566	      0.39758024	     27.98856518	      0.84904458	      3.79693741	     34.13931239	      0.59584341	     12.53686899	    -21.13080098	     -7.49999987	     25.96594103	      2.90094837	      1.14340333	     34.17057262	      0.59638900	     21.03601110	     -8.67243552	     -7.49999987	     -4.53533344	      0.57692931	     -2.50976584	     -5.08933372	     -8.12022629	     -2.40062652	     33.33253833	     83.53739214	     -5.32251738	     -8.09074962	      7.58448717	     35.02173679	     81.40844907
      4.00000000	    -11.17890146	     -0.61483789	      1.41083549	      0.08604455	      1.10611773	      0.40161739	     29.84029393	      0.46145763	      3.56207966	     36.98895427	      0.64557904	     14.26529664	    -20.67020821	     -7.49999987	     27.60172472	      3.33561482	      1.56409348	     36.51549354	      0.63731559	     21.31857782	     -9.80156697	     -7.49999987	     -5.53528960	      0.30634000	     -2.80291080	     -5.00640651	     -8.27249180	     -1.89531616	     33.66285608	     84.12162947	     -5.13327553	     -8.37836051	      8.12220980	     35.21901098	     82.48126720
      4.01666670	    -11.43037764	     -0.38810819	      1.34979076	      0.08180001	      1.09532048	      0.40579837	     32.70705335	      0.27792800	      3.47491349	     41.33052253	      0.72135370	     16.71628099	    -19.83379791	     -7.49999987	     29.84963444	      3.51855450	      1.63277236	     40.16634611	      0.70103499	     21.96879169	    -11.09986459	     -7.49999987	     -7.04342491	     -0.07116465	     -3.19217655	     -4.53149435	     -8.38269068	     -0.75717832	     34.17399291	     83.33603659	     -5.27781470	     -8.93988842	      8.45085688	     36.47298804	     82.83313925
      4.03333330	    -10.93166527	     -0.15974058	      1.44363702	      0.09979724	      1.09678412	      0.40115905	     33.76451913	     -0.13957306	      3.33546081	     44.82772037	      0.78239132	     18.61312309	    -18.80753888	     -7.49999987	     30.44020491	      3.77651530	      1.77507935	     43.24692839	      0.75480129	     22.62210782	    -11.72175135	     -7.49999987	     -8.95017111	     -0.26534696	     -3.52561631	     -4.72010176	     -8.38794529	     -0.52921914	     35.63003808	     83.07003822	     -5.61596623	     -9.13219664	      8.41771980	     37.80031877	     82.96008904
      4.05000000	    -10.50388766	     -0.24507447	      1.17815494	      0.09497926	      1.08431462	      0.39883777	     35.12730201	     -0.26234652	      2.99004666	     48.18130926	      0.84092248	     20.87698397	    -17.93817799	     -7.49999987	     31.75744467	      3.76377378	      1.84670176	     47.34844842	      0.82638632	     24.00093918	    -12.90007478	     -7.49999987	    -11.03971597	     -0.10806889	     -3.43485715	     -4.42682316	     -8.65185766	     -0.16002107	     36.50153432	     82.87686127	     -5.66606720	     -9.09767207	      8.29785235	     38.68708843	     83.06122901
      4.06666670	    -10.21784568	     -0.19979986	      1.09756601	      0.09579072	      1.07313441	      0.39927039	     36.64736749	     -0.47896647	      2.91913738	     51.82054354	      0.90443910	     23.16020436	    -16.72800091	     -7.49999987	     33.37302901	      3.85830810	      1.89295009	     51.72888772	      0.90283941	     25.35681787	    -13.71944765	     -7.49999987	    -13.04680673	     -0.26926021	     -3.63137452	     -3.41252581	     -8.74392351	      0.46960254	     36.37451551	     87.60595616	     -5.80307429	     -8.66486309	      5.22234358	     39.58205401	     91.99199020
      4.08333330	    -10.14805788	     -0.29149833	      1.29774784	      0.09808647	      1.06394297	      0.40532416	     37.83213496	     -0.51333121	      2.63747059	     54.68818925	      0.95448896	     25.14431411	    -15.94727598	     -7.49999987	     35.18913756	      3.77834048	      2.09131144	     55.89559268	      0.97556213	     26.91696512	    -13.66817644	     -7.49999987	    -14.95164697	     -0.27112279	     -3.36611345	     -3.01896778	     -8.58741716	      0.58820591	     36.39571159	     87.55448731	     -5.02700635	     -8.96216212	      5.35256849	     40.02953368	     91.98961404
      4.10000000	    -10.08425204	     -0.13549648	      1.13862548	      0.10472418	      1.05353911	      0.40199867	     38.98603268	     -0.65281968	      2.76543651	     57.47577160	      1.00314145	     27.57217952	    -14.16493942	     -7.49999987	     36.58346568	      3.86195355	      1.96759529	     59.19260618	      1.03310587	     28.76667678	    -12.68585919	     -7.49999987	    -16.70209149	     -0.45960403	     -3.18323314	     -2.49298353	     -8.41202143	      0.72478128	     36.44530933	     87.16494225	     -4.33436262	     -9.14001701	      5.60028879	     40.40547072	     91.62284386
      4.11666670	     -9.79880364	     -0.00916275	      0.63475057	      0.11112473	      1.04531841	      0.39863414	     39.51717774	     -0.87864253	      2.89638744	     59.83761824	      1.04436345	     29.59080664	    -12.41077218	     -7.49999987	     37.15023208	      3.76995255	      1.42472150	     61.92684481	      1.08082734	     30.48616013	    -11.99630535	     -7.49999987	    -18.19491970	     -0.41293394	     -3.04167715	     -1.25038624	     -8.33583985	      1.14029730	     35.13851410	     86.40401156	     -3.11240563	     -9.16489648	      6.56485246	     39.69631623	     91.07214789
      4.13333330	     -9.26429352	      0.13987093	      0.37797018	      0.11741287	      1.03647138	      0.39479371	     39.60341291	     -1.17266739	      3.20610569	     62.39046585	      1.08891905	     31.49661573	    -11.35023609	     -7.49999987	     37.08488057	      3.96784065	      1.04450735	     64.19584781	      1.12042891	     32.38209646	    -11.27326984	     -7.49999987	    -19.91069694	     -0.36605470	     -2.99975370	     -0.54989047	     -8.23771667	      1.02422990	     35.21850198	     83.84949220	     -1.82435569	     -9.24368343	      6.80128999	     40.74039292	     88.41893973
      4.15000000	     -8.51322227	      0.19891360	      0.28445948	      0.12366086	      1.02936155	      0.39694947	     39.28140973	     -1.28900245	      3.41187218	     64.82290832	      1.13137318	     33.08308501	    -10.50620816	     -7.49999987	     36.63162311	      4.05897111	      0.68067726	     66.00070286	      1.15192957	     33.84812731	    -10.80157776	     -7.49999987	    -21.25575344	     -0.31828842	     -3.06977236	      0.32870920	     -8.03863653	      1.08279668	     34.68274700	     82.98934064	     -0.21352305	     -9.49873647	      7.11078410	     41.18751654	     87.67014572
      4.16666670	     -8.41133458	      0.15931364	      0.82011368	      0.11678779	      1.02144193	      0.39439744	     40.16940309	     -1.39168195	      3.38991745	     67.94209355	      1.18581323	     33.89179024	    -11.56743307	     -7.49999987	     37.64969897	      4.38931473	      0.65880598	     68.09350660	      1.18845589	     34.45045546	    -11.29316257	     -7.49999987	    -22.78150298	      0.01918732	     -3.26017212	      2.31110594	     -8.03295463	      1.07496657	     35.27170149	     83.02042043	      2.39463556	     -9.68697732	      6.99328464	     41.76671647	     87.70084058
